<!DOCTYPE svg PUBLIC "-//W3C//DTD SVG 1.1//EN" "http://www.w3.org/Graphics/SVG/1.1/DTD/svg11.dtd">
<!-- Uploaded to: SVG Repo, www.svgrepo.com, Transformed by: SVG Repo Mixer Tools -->
<svg width="256px" height="256px" viewBox="0 0 512.00 512.00" xmlns="http://www.w3.org/2000/svg" fill="#242775" stroke="#242775" transform="matrix(1, 0, 0, 1, 0, 0)rotate(0)" stroke-width="0.512">
<g id="SVGRepo_bgCarrier" stroke-width="0"/>
<g id="SVGRepo_tracerCarrier" stroke-linecap="round" stroke-linejoin="round" stroke="#CCCCCC" stroke-width="6.144"/>
<g id="SVGRepo_iconCarrier">
<path fill="#000000" d="m491,21-99.1169,57.8687 99.1169,57.7219v-115.5906zm0,146.4344-99.1169-57.8687v115.5906l99.1169-57.7219zm0,30.6969-99.1169,57.7219 99.1169,57.8687v-115.5906zm0,146.2875-99.1169-57.575v115.5906l99.1169-58.0156zm0,30.9906-99.1169,57.7219 99.1169,57.8687v-115.5906zm-123.5741-354.4094-99.1169,57.8687 99.1169,57.7219v-115.5906zm0,146.4344-99.1169-57.8687v115.5906l99.1169-57.7219zm0,30.6969-99.1169,57.7219 99.1169,57.8687v-115.5906zm0,146.2875-99.1169-57.575v115.5906l99.1169-58.0156zm0,30.9906-99.1169,57.7219 99.1169,57.8687v-115.5906zm-123.7349-296.5406-99.1169-57.8687v115.5906l99.1169-57.7219zm0,30.6969-99.1169,57.8687 99.1169,57.7219v-115.5906zm0,146.2875-99.1169-57.7219v115.5906l99.1169-57.8687zm0,30.9906-99.1169,57.575 99.1169,58.0156v-115.5906zm0,146.2875-99.1169-57.7219v115.5906l99.1169-57.8687zm-123.5742-354.2625-99.1168-57.8687v115.5906l99.1168-57.7219zm0,30.6969-99.1168,57.8687 99.1168,57.7219v-115.5906zm0,146.2875-99.1168-57.7219v115.5906l99.1168-57.8687zm0,30.9906-99.1168,57.575 99.1168,58.0156v-115.5906zm0,146.2875-99.1168-57.7219v115.5906l99.1168-57.8687z"/>
</g>
</svg>